<?xml version="1.0" standalone="no"?>
<!DOCTYPE svg PUBLIC "-//W3C//DTD SVG 20010904//EN"
 "http://www.w3.org/TR/2001/REC-SVG-20010904/DTD/svg10.dtd">
<svg version="1.0" xmlns="http://www.w3.org/2000/svg"
 width="500.000000pt" height="500.000000pt" viewBox="0 0 500.000000 500.000000"
 preserveAspectRatio="xMidYMid meet">

<g transform="translate(0.000000,500.000000) scale(0.100000,-0.100000)"
fill="#000000" stroke="none">
<path d="M0 2500 l0 -2500 2500 0 2500 0 0 2500 0 2500 -2500 0 -2500 0 0
-2500z m771 724 c151 -83 171 -294 38 -408 -55 -46 -96 -59 -179 -54 -53 3
-77 10 -115 33 -59 36 -67 53 -25 47 53 -8 121 18 165 62 86 86 85 206 -2 294
-34 33 -50 42 -80 43 l-38 2 40 8 c68 13 140 3 196 -27z m1176 0 c-3 -3 -12
-4 -19 -1 -8 3 -5 6 6 6 11 1 17 -2 13 -5z m140 0 c-3 -3 -12 -4 -19 -1 -8 3
-5 6 6 6 11 1 17 -2 13 -5z m-1638 -41 c-18 -21 -37 -42 -41 -47 -5 -6 -8 -7
-8 -3 0 9 70 87 78 87 3 0 -10 -17 -29 -37z m1281 -57 c0 -2 -8 -10 -17 -17
-16 -13 -17 -12 -4 4 13 16 21 21 21 13z m-1339 -33 c-12 -20 -14 -14 -5 12 4
9 9 14 11 11 3 -2 0 -13 -6 -23z m1299 4 c0 -2 -17 -19 -37 -38 l-38 -34 34
38 c33 34 41 42 41 34z m537 -79 c-2 -13 -4 -5 -4 17 -1 22 1 32 4 23 2 -10 2
-28 0 -40z m-1850 20 c-3 -8 -6 -5 -6 6 -1 11 2 17 5 13 3 -3 4 -12 1 -19z
m1182 -65 c-52 -54 -55 -60 -47 -89 13 -42 -5 -106 -43 -149 -34 -38 -93 -74
-171 -103 -117 -44 -128 -54 -80 -74 119 -48 131 -58 191 -146 72 -106 101
-139 143 -157 l33 -14 -61 -1 c-72 0 -69 -3 -173 152 -52 76 -85 116 -116 135
-74 47 -69 65 29 115 100 50 142 84 166 132 12 25 20 55 18 67 -3 20 -8 18
-58 -27 -30 -26 -62 -53 -70 -58 -19 -13 18 23 83 79 44 38 48 45 38 64 -11
19 -9 21 21 21 27 0 44 10 88 55 30 30 57 55 59 55 3 0 -20 -26 -50 -57z
m-1192 -15 c-3 -7 -5 -2 -5 12 0 14 2 19 5 13 2 -7 2 -19 0 -25z m1623 -343
c114 -305 136 -350 174 -365 13 -6 -20 -9 -94 -8 -89 0 -108 2 -82 9 52 15 58
43 28 131 -15 41 -37 102 -51 134 l-24 59 -1 -66 c-1 -171 -81 -278 -209 -279
-47 0 -57 4 -87 34 -33 33 -39 54 -34 116 5 58 47 107 156 181 83 56 104 75
104 95 0 23 -24 16 -55 -16 -16 -16 -32 -30 -37 -30 -4 0 9 16 31 35 43 39 71
45 71 16 0 -36 -12 -52 -75 -97 -115 -82 -155 -149 -135 -225 13 -46 39 -70
87 -75 55 -7 100 21 137 87 27 48 31 64 34 154 4 103 -6 145 -73 300 l-17 40
-13 -35 c-8 -19 -27 -73 -44 -120 -17 -47 -31 -78 -31 -69 0 9 23 77 50 150
28 74 53 140 56 148 3 8 8 10 13 5 4 -5 58 -144 121 -309z m1200 0 c114 -305
136 -350 174 -365 13 -6 -20 -9 -94 -8 -89 0 -108 2 -82 9 52 15 58 43 28 131
-15 41 -37 102 -51 134 l-24 59 -1 -66 c-1 -171 -81 -278 -209 -279 -47 0 -57
4 -87 34 -33 33 -39 54 -34 116 5 58 47 107 156 181 83 56 104 75 104 95 0 23
-24 16 -55 -16 -16 -16 -32 -30 -37 -30 -4 0 9 16 31 35 43 39 71 45 71 16 0
-36 -12 -52 -75 -97 -115 -82 -155 -149 -135 -225 13 -46 39 -70 87 -75 55 -7
100 21 137 87 27 48 31 64 34 154 4 103 -6 145 -73 300 l-17 40 -13 -35 c-8
-19 -27 -73 -44 -120 -17 -47 -31 -78 -31 -69 0 9 23 77 50 150 28 74 53 140
56 148 3 8 8 10 13 5 4 -5 58 -144 121 -309z m-1987 295 c-12 -5 -26 -18 -32
-29 -15 -27 -15 -575 0 -602 6 -11 20 -24 32 -29 15 -6 -8 -9 -73 -9 -74 0
-90 3 -73 11 12 6 25 18 29 27 10 22 17 450 9 530 -5 48 -13 70 -30 87 l-24
24 92 -1 c63 0 85 -3 70 -9z m1292 -262 c98 -150 185 -280 193 -288 12 -13 13
12 9 190 -6 242 -17 292 -75 339 l-37 31 95 -1 c65 0 88 -3 73 -9 -12 -5 -26
-18 -32 -29 -7 -13 -11 -131 -11 -336 0 -195 -4 -315 -9 -313 -6 2 -103 145
-217 318 -113 173 -208 317 -211 320 -3 3 -3 -105 -1 -240 4 -200 8 -253 21
-290 20 -49 42 -78 72 -91 12 -5 -16 -8 -75 -8 -67 0 -88 3 -72 9 12 5 27 21
32 35 11 30 13 560 1 589 -4 10 -18 24 -32 32 -22 12 -20 13 37 14 l62 0 177
-272z m1140 87 c66 -101 123 -184 128 -185 4 0 7 12 7 27 0 38 37 109 76 149
19 18 34 41 34 51 -1 37 -39 103 -72 123 l-33 20 93 0 93 0 -25 -22 c-16 -16
-26 -38 -31 -70 -3 -27 -4 -48 0 -48 3 0 23 9 45 20 59 30 63 24 5 -8 l-50
-27 -3 -193 c-1 -125 1 -192 8 -192 18 0 87 69 100 100 19 46 4 98 -41 143
-21 22 -39 42 -39 44 0 16 104 -7 141 -31 150 -100 68 -331 -118 -329 l-52 0
-3 -41 c-3 -40 -5 -37 -213 279 l-210 319 -3 -214 c-1 -126 2 -236 8 -267 13
-60 45 -112 80 -130 22 -11 12 -13 -70 -12 -65 0 -88 3 -73 9 36 15 43 68 43
330 0 261 -7 310 -43 328 -18 9 -12 11 38 11 l60 1 120 -185z m-3258 153 c-3
-8 -6 -5 -6 6 -1 11 2 17 5 13 3 -3 4 -12 1 -19z m3902 -38 c195 -32 346 -181
396 -391 8 -35 14 -80 14 -99 -1 -24 -4 -17 -10 25 -21 145 -87 279 -172 349
-96 79 -235 122 -362 113 -43 -3 -58 -2 -40 3 44 11 102 11 174 0z m-212 -16
c-3 -3 -12 -4 -19 -1 -8 3 -5 6 6 6 11 1 17 -2 13 -5z m-2777 -98 c0 -2 -8
-10 -17 -17 -16 -13 -17 -12 -4 4 13 16 21 21 21 13z m-45 -36 c-3 -5 -16 -15
-28 -21 -19 -9 -19 -8 3 10 28 23 34 26 25 11z m-695 -78 c0 -7 -56 36 -75 59
-11 12 1 5 28 -16 26 -22 47 -41 47 -43z m70 -32 c8 -5 11 -10 5 -10 -5 0 -17
5 -25 10 -8 5 -10 10 -5 10 6 0 17 -5 25 -10z m117 -36 c-3 -3 -12 -4 -19 -1
-8 3 -5 6 6 6 11 1 17 -2 13 -5z m210 0 c-3 -3 -12 -4 -19 -1 -8 3 -5 6 6 6
11 1 17 -2 13 -5z m-84 -11 c-13 -2 -35 -2 -50 0 -16 2 -5 4 22 4 28 0 40 -2
28 -4z m3834 -300 c-3 -10 -5 -4 -5 12 0 17 2 24 5 18 2 -7 2 -21 0 -30z
m-1594 -304 c93 -63 128 -90 92 -71 -92 48 -279 200 -336 274 -19 24 8 2 59
-49 51 -50 135 -120 185 -154z m1584 189 c-2 -13 -4 -5 -4 17 -1 22 1 32 4 23
2 -10 2 -28 0 -40z m-10 -60 c-3 -7 -5 -2 -5 12 0 14 2 19 5 13 2 -7 2 -19 0
-25z m-13 -52 c-3 -15 -8 -25 -11 -23 -2 3 -1 17 3 31 3 15 8 25 11 23 2 -3 1
-17 -3 -31z m-41 -102 c-30 -61 -95 -140 -145 -175 -17 -12 1 9 38 47 45 45
79 91 98 131 16 35 31 61 34 59 2 -2 -9 -30 -25 -62z m-1148 -183 c-5 -4 -255
116 -255 123 0 2 58 -23 129 -57 71 -34 128 -64 126 -66z m75 -23 c10 -6 7 -7
-10 -2 -14 3 -32 11 -40 16 -10 6 -7 7 10 2 14 -3 32 -11 40 -16z m890 7 c0
-7 -90 -51 -120 -59 -14 -4 7 9 45 28 82 40 75 37 75 31z m-740 -49 c177 -45
370 -56 525 -31 l30 5 -30 -12 c-18 -6 -95 -11 -190 -11 -162 -1 -294 18 -400
57 -58 21 -42 19 65 -8z m587 -22 c-3 -3 -12 -4 -19 -1 -8 3 -5 6 6 6 11 1 17
-2 13 -5z"/>
<path d="M3845 2709 c-44 -49 -65 -94 -67 -148 -1 -32 8 -54 48 -115 27 -42
52 -76 57 -76 4 0 7 86 7 190 0 105 -2 190 -4 190 -2 0 -20 -18 -41 -41z"/>
</g>
</svg>
